<?xml version="1.0" encoding="utf-8"?>
<svg version="1.0" width="300.000000pt" height="205.000000pt" viewBox="0 0 300.000000 205.000000" preserveAspectRatio="xMidYMid meet" xmlns="http://www.w3.org/2000/svg">
  <g transform="matrix(0.057398, 0, 0, -0.057398, 116.543945, 153.765945)" fill="#000000" stroke="none" style="">
    <title>chien</title>
    <path d="M 2281.23 1153.329 C 2303.23 1131.329 2294.23 1125.329 2240.23 1125.329 C 2212.23 1125.329 2172.23 1120.329 2153.23 1114.329 C 2134.23 1108.329 2062.23 1099.329 1993.23 1095.329 C 1882.23 1088.329 1858.23 1083.329 1780.23 1050.329 C 1708.23 1020.329 1665.23 1010.329 1541.23 994.329 C 1458.23 983.329 1362.23 968.329 1329.23 959.329 C 1295.23 950.329 1237.23 942.329 1198.23 941.329 C 1147.23 939.329 1108.23 930.329 1052.23 907.329 C 1010.23 890.329 949.23 871.329 917.23 864.329 C 851.23 851.329 811.23 859.329 686.23 916.329 C 592.23 958.329 610.23 935.329 710.23 884.329 C 824.23 827.329 881.23 822.329 1022.23 859.329 C 1131.23 887.329 1171.23 892.329 1142.23 875.329 C 1132.23 869.329 1109.23 841.329 1089.23 811.329 C 1048.23 749.329 1022.23 737.329 918.23 728.329 C 857.23 723.329 841.23 717.329 798.23 685.329 C 735.23 638.329 691.23 615.329 661.23 615.329 C 629.23 615.329 609.23 600.329 616.23 581.329 C 628.23 549.329 700.23 561.329 796.23 611.329 C 860.23 643.329 894.23 655.329 916.23 653.329 C 947.23 649.329 945.23 648.329 880.23 616.329 C 823.23 588.329 805.23 572.329 766.23 518.329 C 732.23 470.329 709.23 448.329 676.23 434.329 C 628.23 414.329 621.23 398.329 656.23 390.329 C 695.23 381.329 730.23 398.329 805.23 465.329 C 869.23 523.329 888.23 534.329 973.23 561.329 C 1086.23 599.329 1193.23 648.329 1232.23 681.329 C 1260.23 705.329 1435.23 765.329 1476.23 765.329 C 1487.23 765.329 1564.23 751.329 1647.23 734.329 C 1815.23 699.329 1905.23 695.329 1975.23 719.329 L 2022.23 735.329 L 2077.23 679.329 L 2131.23 623.329 L 2205.23 629.329 C 2245.23 633.329 2314.23 640.329 2359.23 646.329 C 2439.23 656.329 2441.23 656.329 2468.23 631.329 C 2505.23 597.329 2535.097 552.778 2553.097 571.778 C 2567.097 585.778 2561.23 625.329 2527.23 644.329 C 2489.23 664.329 2489.23 664.329 2516.23 665.329 C 2532.23 665.329 2553.23 660.329 2563.23 655.329 C 2577.23 647.329 2592.23 649.329 2619.23 660.329 C 2678.23 685.329 2657.23 700.329 2558.23 703.329 L 2469.23 706.329 L 2422.23 750.329 L 2374.23 795.329 L 2284.23 795.329 L 2199.964 796.762 L 2178.23 825.329 C 2159.23 862.329 2176.688 901.452 2198.972 923.736 C 2240.606 965.37 2259.23 963.329 2375.23 935.329 C 2421.23 924.329 2482.23 915.329 2512.23 915.329 C 2558.23 915.329 2564.23 917.329 2553.23 930.329 C 2543.23 943.329 2544.23 945.329 2565.23 945.329 C 2589.23 945.329 2613.23 961.329 2613.23 977.329 C 2613.23 982.329 2592.23 995.329 2566.23 1006.329 C 2539.23 1017.329 2500.23 1046.329 2477.23 1070.329 C 2446.23 1104.329 2427.23 1116.329 2395.23 1121.329 C 2372.23 1125.329 2353.23 1131.329 2353.23 1135.329 C 2353.23 1144.329 2306.23 1165.329 2286.23 1165.329 C 2273.23 1165.329 2272.23 1162.329 2281.23 1153.329 Z M 2333.23 1116.329 C 2333.23 1108.329 2363.23 1097.329 2408.23 1088.329 C 2419.23 1086.329 2444.23 1066.329 2465.23 1045.329 C 2485.23 1023.329 2515.23 1000.329 2532.23 994.329 L 2564.23 983.329 L 2542.23 964.329 C 2514.23 940.329 2479.23 940.329 2375.23 965.329 C 2329.23 976.329 2297.333 982.886 2270.302 982.479 C 2240.305 982.027 2221.838 981.524 2176.374 937.803 C 2160.848 922.872 2134.23 855.329 2146.23 830.329 C 2169.23 781.329 2195.23 765.329 2247.23 764.329 C 2296.23 764.329 2297.23 763.329 2276.23 748.329 C 2243.23 725.329 2248.23 710.329 2296.23 687.329 L 2338.23 666.329 L 2278.23 665.329 C 2245.23 665.329 2201.23 662.329 2180.23 659.329 C 2145.23 654.329 2139.23 657.329 2086.23 709.329 C 2048.23 746.329 2024.23 764.329 2013.23 760.329 C 1975.23 745.329 1856.23 725.329 1833.23 729.329 C 1819.23 732.329 1795.23 737.329 1778.23 740.329 C 1762.23 743.329 1721.23 750.329 1688.23 756.329 C 1655.23 762.329 1624.23 768.329 1618.23 769.329 C 1613.23 770.329 1602.23 774.329 1595.23 779.329 C 1576.23 790.329 1402.23 789.329 1394.23 778.329 C 1391.23 773.329 1363.23 763.329 1333.23 757.329 C 1299.23 749.329 1254.23 728.329 1218.23 704.329 C 1146.23 654.329 1099.23 633.329 966.23 590.329 C 910.23 571.329 854.23 547.329 841.23 536.329 C 813.23 509.329 799.23 509.329 815.23 536.329 C 822.23 547.329 851.23 568.329 878.23 582.329 C 931.23 609.329 963.23 633.329 963.23 646.329 C 963.23 650.329 956.23 660.329 948.23 669.329 C 929.23 688.329 879.23 683.329 825.23 657.329 C 772.23 632.329 771.23 637.329 823.23 671.329 C 854.23 691.329 875.23 697.329 920.23 698.329 C 952.23 698.329 985.23 701.329 993.23 706.329 C 1001.23 710.329 1023.23 719.329 1040.23 725.329 C 1059.23 732.329 1082.23 753.329 1094.23 772.329 C 1106.23 791.329 1125.23 815.329 1136.23 826.329 C 1148.23 836.329 1153.23 845.329 1149.23 845.329 C 1145.23 845.329 1149.23 852.329 1158.23 861.329 C 1169.23 873.329 1171.23 881.329 1164.23 888.329 C 1143.23 909.329 1154.23 916.329 1211.23 914.329 C 1242.23 913.329 1288.23 918.329 1313.23 925.329 C 1338.23 932.329 1369.23 939.329 1383.23 940.329 C 1397.23 942.329 1437.23 948.329 1473.23 954.329 C 1543.23 965.329 1595.23 972.329 1658.23 979.329 C 1702.23 985.329 1762.23 1004.329 1808.23 1029.329 C 1825.23 1038.329 1848.23 1045.329 1861.23 1045.329 C 1874.23 1045.329 1882.23 1049.329 1879.23 1053.329 C 1877.23 1057.329 1920.23 1061.329 1976.23 1062.329 C 2032.23 1062.329 2098.23 1068.329 2123.23 1075.329 C 2148.23 1082.329 2184.23 1089.329 2203.23 1091.329 C 2222.23 1094.329 2254.23 1098.329 2273.23 1100.329 C 2292.23 1103.329 2309.23 1109.329 2311.23 1115.329 C 2315.23 1127.329 2333.23 1128.329 2333.23 1116.329 Z M 2366.23 726.329 C 2407.23 705.329 2399.23 697.329 2346.23 706.329 C 2319.23 710.329 2291.23 714.329 2283.23 715.329 C 2275.23 716.329 2282.23 723.329 2298.23 730.329 C 2315.23 738.329 2330.23 743.329 2333.23 742.329 C 2336.23 740.329 2350.23 733.329 2366.23 726.329 Z" style="stroke-width: 17.4222px; stroke: rgb(97, 97, 97); fill: rgb(117, 117, 117); fill-rule: nonzero; paint-order: fill;"/>
    <polyline style="" points="629.029 934.963 805.429 859.003 923.046 854.107 1123.941 934.963 1427.75 976.603 1751.159 1030.507 1858.95 1089.307 2116.206 1104.011 2233.806 1135.859 2285.254 1128.507 2273.006 1175.059 2351.406 1140.755 2361.214 1121.155 2446.967 1113.82 2554.758 1020.716 2620.91 993.763 2613.558 952.107 2554.758 944.755 2574.358 917.803 2544.967 908.011 2461.653 910.468 2309.767 966.811 2216.662 949.668 2184.815 912.907 2170.11 844.316 2194.606 795.307 2368.567 807.555 2471.463 716.907 2657.671 694.851 2596.415 653.212 2532.719 655.651 2557.215 601.764 2567.006 562.546 2530.262 560.107 2434.719 643.403 2126.015 616.451 1981.463 729.155 1903.045 704.659 1736.454 704.659 1511.046 753.651 1422.854 756.107 1246.437 692.412 1197.446 638.507 1025.942 572.355 893.637 530.699 849.542 484.146 793.181 454.755 739.294 469.46 800.533 572.355 876.494 618.907 893.637 645.859 731.942 569.899 621.677 555.212 421.861 548.016 663.333 626.259 749.085 660.564 878.933 709.555 874.037 743.859 898.533 795.307 800.533 844.316 621.677 939.859"/>
  </g>
  <g transform="matrix(0.065682, 0, 0, -0.065682, -4.99796, 154.524124)" fill="#000000" stroke="none" style="">
    <title>bretzel</title>
    <path d="M818 2060 c-243 -44 -439 -214 -514 -444 -38 -114 -38 -286 -1 -427 38 -145 119 -305 209 -412 l23 -28 103 61 102 61 -54 72 c-103 138 -158 273 -172 419 -20 229 120 419 340 459 158 29 337 -53 418 -192 15 -25 45 -97 67 -161 22 -64 47 -131 56 -150 26 -51 69 -118 76 -118 11 0 49 102 64 175 41 194 -9 351 -158 500 -89 89 -179 141 -292 170 -75 19 -205 27 -267 15z"/>
    <path d="M1558 2055 c-37 -7 -88 -23 -114 -34 l-46 -21 60 -64 c33 -36 68 -79 79 -96 13 -23 23 -30 38 -25 58 16 143 17 205 1 124 -32 220 -110 273 -224 60 -129 46 -323 -35 -489 -40 -80 -95 -164 -138 -211 -16 -18 -30 -35 -30 -37 0 -4 180 -113 201 -123 15 -6 133 166 179 262 66 136 91 233 97 381 6 143 -9 222 -64 333 -38 77 -120 177 -189 229 -138 105 -348 154 -516 118z"/>
    <path d="M 984 1707 C 975 1682 999 1457 1020 1376 C 1058 1231 1111 1125 1210 991 C 1355 795 1549.502 629.834 1972.542 450.212 C 2747.176 175.457 4182.908 278.022 4444.274 499.585 C 4123.066 368.667 2985.756 354.748 2431.999 474.489 C 1837.238 636.24 1640 881 1539 977 C 1395 1114 1325 1225 1253 1427 C 1203 1568 1178 1613 1128 1655 C 1075 1700 993 1730 984 1707 Z"/>
    <path d="M995 954 c-85 -78 -208 -167 -333 -241 -119 -70 -146 -118 -107 -193 36 -69 112 -80 204 -28 132 74 264 170 416 302 l40 35 -23 28 c-12 15 -44 58 -70 95 -26 37 -49 67 -52 67 -3 0 -36 -29 -75 -65z"/>
    <path d="M1090 600 c-19 -17 -72 -56 -118 -87 -67 -46 -80 -58 -67 -66 36 -20 245 -66 330 -72 54 -4 124 -2 175 5 87 12 234 45 259 59 9 6 -14 27 -80 71 -52 34 -104 72 -117 84 -21 19 -36 21 -145 21 -67 1 -140 4 -162 8 -36 6 -44 4 -75 -23z"/>
  </g>
  <path d="M 32.431 181.147 L 32.431 183.417 L 19.651 183.417 L 19.651 165.627 L 32.431 165.627 L 32.431 167.897 L 24.561 167.897 L 24.561 173.397 L 30.641 173.397 L 30.641 175.657 L 24.561 175.657 L 24.561 181.147 L 32.431 181.147 ZM 39.373 166.917 L 39.373 183.417 L 35.193 183.417 L 35.193 162.577 L 36.803 162.577 L 39.373 166.917 ZM 55.132 178.857 C 55.132 179.484 55.042 180.04 54.862 180.527 C 54.682 181.014 54.436 181.437 54.122 181.797 C 53.809 182.15 53.439 182.45 53.012 182.697 C 52.579 182.937 52.119 183.13 51.632 183.277 C 51.139 183.43 50.626 183.54 50.092 183.607 C 49.559 183.667 49.029 183.697 48.502 183.697 C 47.796 183.697 47.169 183.654 46.622 183.567 C 46.076 183.474 45.556 183.327 45.062 183.127 C 44.569 182.927 44.079 182.667 43.592 182.347 C 43.099 182.02 42.552 181.627 41.952 181.167 L 44.382 179.177 C 44.609 179.597 44.906 179.98 45.272 180.327 C 45.639 180.667 46.019 180.96 46.412 181.207 C 46.806 181.454 47.189 181.644 47.562 181.777 C 47.929 181.904 48.229 181.967 48.462 181.967 C 48.649 181.967 48.862 181.964 49.102 181.957 C 49.342 181.944 49.586 181.917 49.832 181.877 C 50.079 181.844 50.322 181.79 50.562 181.717 C 50.802 181.637 51.016 181.534 51.202 181.407 C 51.382 181.28 51.529 181.12 51.642 180.927 C 51.756 180.734 51.812 180.5 51.812 180.227 C 51.812 179.947 51.739 179.704 51.592 179.497 C 51.452 179.284 51.266 179.1 51.032 178.947 C 50.799 178.787 50.536 178.654 50.242 178.547 C 49.942 178.44 49.642 178.347 49.342 178.267 C 49.042 178.187 48.752 178.114 48.472 178.047 C 48.192 177.987 47.949 177.927 47.742 177.867 C 47.369 177.76 46.972 177.654 46.552 177.547 C 46.132 177.434 45.716 177.304 45.302 177.157 C 44.889 177.017 44.496 176.847 44.122 176.647 C 43.749 176.447 43.419 176.21 43.132 175.937 C 42.846 175.664 42.619 175.337 42.452 174.957 C 42.286 174.584 42.202 174.147 42.202 173.647 C 42.202 172.72 42.386 171.947 42.752 171.327 C 43.119 170.707 43.602 170.21 44.202 169.837 C 44.802 169.464 45.486 169.197 46.252 169.037 C 47.019 168.884 47.796 168.807 48.582 168.807 C 49.129 168.807 49.702 168.86 50.302 168.967 C 50.902 169.08 51.489 169.247 52.062 169.467 C 52.629 169.68 53.159 169.944 53.652 170.257 C 54.146 170.57 54.556 170.93 54.882 171.337 L 52.452 173.337 C 52.272 172.844 52.036 172.42 51.742 172.067 C 51.449 171.714 51.132 171.424 50.792 171.197 C 50.452 170.97 50.102 170.804 49.742 170.697 C 49.382 170.59 49.049 170.537 48.742 170.537 C 48.449 170.537 48.116 170.547 47.742 170.567 C 47.376 170.594 47.029 170.664 46.702 170.777 C 46.376 170.897 46.099 171.074 45.872 171.307 C 45.646 171.54 45.532 171.864 45.532 172.277 C 45.532 172.57 45.602 172.824 45.742 173.037 C 45.876 173.244 46.052 173.424 46.272 173.577 C 46.499 173.73 46.752 173.857 47.032 173.957 C 47.319 174.064 47.609 174.157 47.902 174.237 C 48.202 174.31 48.492 174.377 48.772 174.437 C 49.052 174.497 49.302 174.557 49.522 174.617 C 49.902 174.724 50.306 174.834 50.732 174.947 C 51.152 175.06 51.569 175.187 51.982 175.327 C 52.396 175.474 52.792 175.644 53.172 175.837 C 53.559 176.03 53.896 176.267 54.182 176.547 C 54.469 176.827 54.699 177.154 54.872 177.527 C 55.046 177.907 55.132 178.35 55.132 178.857 ZM 72.133 169.147 L 72.133 183.417 L 67.953 183.417 L 67.953 181.717 C 67.459 182.39 66.866 182.89 66.173 183.217 C 65.473 183.537 64.709 183.697 63.883 183.697 C 62.796 183.697 61.823 183.504 60.963 183.117 C 60.109 182.73 59.386 182.204 58.793 181.537 C 58.199 180.864 57.746 180.074 57.433 179.167 C 57.119 178.26 56.963 177.287 56.963 176.247 C 56.963 175.214 57.119 174.244 57.433 173.337 C 57.746 172.43 58.199 171.64 58.793 170.967 C 59.386 170.3 60.109 169.774 60.963 169.387 C 61.823 169 62.796 168.807 63.883 168.807 C 64.429 168.807 64.953 168.887 65.453 169.047 C 65.953 169.214 66.409 169.447 66.823 169.747 C 67.243 170.047 67.609 170.41 67.923 170.837 C 68.243 171.257 68.493 171.727 68.673 172.247 L 70.523 169.147 L 72.133 169.147 Z M 67.933 176.247 C 67.933 175.88 67.913 175.49 67.873 175.077 C 67.839 174.664 67.776 174.257 67.683 173.857 C 67.596 173.45 67.469 173.064 67.303 172.697 C 67.143 172.33 66.939 172.007 66.693 171.727 C 66.439 171.44 66.136 171.214 65.783 171.047 C 65.429 170.887 65.016 170.807 64.543 170.807 C 64.076 170.807 63.669 170.89 63.323 171.057 C 62.976 171.224 62.679 171.45 62.433 171.737 C 62.186 172.024 61.983 172.35 61.823 172.717 C 61.663 173.09 61.536 173.477 61.443 173.877 C 61.356 174.284 61.293 174.69 61.253 175.097 C 61.219 175.504 61.203 175.887 61.203 176.247 C 61.203 176.614 61.219 177.004 61.253 177.417 C 61.293 177.824 61.356 178.23 61.443 178.637 C 61.536 179.037 61.663 179.424 61.823 179.797 C 61.983 180.17 62.186 180.497 62.433 180.777 C 62.679 181.064 62.976 181.29 63.323 181.457 C 63.669 181.63 64.076 181.717 64.543 181.717 C 64.976 181.717 65.359 181.627 65.693 181.447 C 66.026 181.267 66.316 181.03 66.563 180.737 C 66.816 180.437 67.029 180.1 67.203 179.727 C 67.376 179.347 67.516 178.954 67.623 178.547 C 67.729 178.147 67.806 177.747 67.853 177.347 C 67.906 176.947 67.933 176.58 67.933 176.247 ZM 87.893 178.857 C 87.893 179.484 87.803 180.04 87.623 180.527 C 87.443 181.014 87.197 181.437 86.883 181.797 C 86.57 182.15 86.2 182.45 85.773 182.697 C 85.34 182.937 84.88 183.13 84.393 183.277 C 83.9 183.43 83.387 183.54 82.853 183.607 C 82.32 183.667 81.79 183.697 81.263 183.697 C 80.557 183.697 79.93 183.654 79.383 183.567 C 78.837 183.474 78.317 183.327 77.823 183.127 C 77.33 182.927 76.84 182.667 76.353 182.347 C 75.86 182.02 75.313 181.627 74.713 181.167 L 77.143 179.177 C 77.37 179.597 77.667 179.98 78.033 180.327 C 78.4 180.667 78.78 180.96 79.173 181.207 C 79.567 181.454 79.95 181.644 80.323 181.777 C 80.69 181.904 80.99 181.967 81.223 181.967 C 81.41 181.967 81.623 181.964 81.863 181.957 C 82.103 181.944 82.347 181.917 82.593 181.877 C 82.84 181.844 83.083 181.79 83.323 181.717 C 83.563 181.637 83.777 181.534 83.963 181.407 C 84.143 181.28 84.29 181.12 84.403 180.927 C 84.517 180.734 84.573 180.5 84.573 180.227 C 84.573 179.947 84.5 179.704 84.353 179.497 C 84.213 179.284 84.027 179.1 83.793 178.947 C 83.56 178.787 83.297 178.654 83.003 178.547 C 82.703 178.44 82.403 178.347 82.103 178.267 C 81.803 178.187 81.513 178.114 81.233 178.047 C 80.953 177.987 80.71 177.927 80.503 177.867 C 80.13 177.76 79.733 177.654 79.313 177.547 C 78.893 177.434 78.477 177.304 78.063 177.157 C 77.65 177.017 77.257 176.847 76.883 176.647 C 76.51 176.447 76.18 176.21 75.893 175.937 C 75.607 175.664 75.38 175.337 75.213 174.957 C 75.047 174.584 74.963 174.147 74.963 173.647 C 74.963 172.72 75.147 171.947 75.513 171.327 C 75.88 170.707 76.363 170.21 76.963 169.837 C 77.563 169.464 78.247 169.197 79.013 169.037 C 79.78 168.884 80.557 168.807 81.343 168.807 C 81.89 168.807 82.463 168.86 83.063 168.967 C 83.663 169.08 84.25 169.247 84.823 169.467 C 85.39 169.68 85.92 169.944 86.413 170.257 C 86.907 170.57 87.317 170.93 87.643 171.337 L 85.213 173.337 C 85.033 172.844 84.797 172.42 84.503 172.067 C 84.21 171.714 83.893 171.424 83.553 171.197 C 83.213 170.97 82.863 170.804 82.503 170.697 C 82.143 170.59 81.81 170.537 81.503 170.537 C 81.21 170.537 80.877 170.547 80.503 170.567 C 80.137 170.594 79.79 170.664 79.463 170.777 C 79.137 170.897 78.86 171.074 78.633 171.307 C 78.407 171.54 78.293 171.864 78.293 172.277 C 78.293 172.57 78.363 172.824 78.503 173.037 C 78.637 173.244 78.813 173.424 79.033 173.577 C 79.26 173.73 79.513 173.857 79.793 173.957 C 80.08 174.064 80.37 174.157 80.663 174.237 C 80.963 174.31 81.253 174.377 81.533 174.437 C 81.813 174.497 82.063 174.557 82.283 174.617 C 82.663 174.724 83.067 174.834 83.493 174.947 C 83.913 175.06 84.33 175.187 84.743 175.327 C 85.157 175.474 85.553 175.644 85.933 175.837 C 86.32 176.03 86.657 176.267 86.943 176.547 C 87.23 176.827 87.46 177.154 87.633 177.527 C 87.807 177.907 87.893 178.35 87.893 178.857 ZM 102.804 178.857 C 102.804 179.484 102.714 180.04 102.534 180.527 C 102.354 181.014 102.107 181.437 101.794 181.797 C 101.48 182.15 101.11 182.45 100.684 182.697 C 100.25 182.937 99.79 183.13 99.304 183.277 C 98.81 183.43 98.297 183.54 97.764 183.607 C 97.23 183.667 96.7 183.697 96.174 183.697 C 95.467 183.697 94.84 183.654 94.294 183.567 C 93.747 183.474 93.227 183.327 92.734 183.127 C 92.24 182.927 91.75 182.667 91.264 182.347 C 90.77 182.02 90.224 181.627 89.624 181.167 L 92.054 179.177 C 92.28 179.597 92.577 179.98 92.944 180.327 C 93.31 180.667 93.69 180.96 94.084 181.207 C 94.477 181.454 94.86 181.644 95.234 181.777 C 95.6 181.904 95.9 181.967 96.134 181.967 C 96.32 181.967 96.534 181.964 96.774 181.957 C 97.014 181.944 97.257 181.917 97.504 181.877 C 97.75 181.844 97.994 181.79 98.234 181.717 C 98.474 181.637 98.687 181.534 98.874 181.407 C 99.054 181.28 99.2 181.12 99.314 180.927 C 99.427 180.734 99.484 180.5 99.484 180.227 C 99.484 179.947 99.41 179.704 99.264 179.497 C 99.124 179.284 98.937 179.1 98.704 178.947 C 98.47 178.787 98.207 178.654 97.914 178.547 C 97.614 178.44 97.314 178.347 97.014 178.267 C 96.714 178.187 96.424 178.114 96.144 178.047 C 95.864 177.987 95.62 177.927 95.414 177.867 C 95.04 177.76 94.644 177.654 94.224 177.547 C 93.804 177.434 93.387 177.304 92.974 177.157 C 92.56 177.017 92.167 176.847 91.794 176.647 C 91.42 176.447 91.09 176.21 90.804 175.937 C 90.517 175.664 90.29 175.337 90.124 174.957 C 89.957 174.584 89.874 174.147 89.874 173.647 C 89.874 172.72 90.057 171.947 90.424 171.327 C 90.79 170.707 91.274 170.21 91.874 169.837 C 92.474 169.464 93.157 169.197 93.924 169.037 C 94.69 168.884 95.467 168.807 96.254 168.807 C 96.8 168.807 97.374 168.86 97.974 168.967 C 98.574 169.08 99.16 169.247 99.734 169.467 C 100.3 169.68 100.83 169.944 101.324 170.257 C 101.817 170.57 102.227 170.93 102.554 171.337 L 100.124 173.337 C 99.944 172.844 99.707 172.42 99.414 172.067 C 99.12 171.714 98.804 171.424 98.464 171.197 C 98.124 170.97 97.774 170.804 97.414 170.697 C 97.054 170.59 96.72 170.537 96.414 170.537 C 96.12 170.537 95.787 170.547 95.414 170.567 C 95.047 170.594 94.7 170.664 94.374 170.777 C 94.047 170.897 93.77 171.074 93.544 171.307 C 93.317 171.54 93.204 171.864 93.204 172.277 C 93.204 172.57 93.274 172.824 93.414 173.037 C 93.547 173.244 93.724 173.424 93.944 173.577 C 94.17 173.73 94.424 173.857 94.704 173.957 C 94.99 174.064 95.28 174.157 95.574 174.237 C 95.874 174.31 96.164 174.377 96.444 174.437 C 96.724 174.497 96.974 174.557 97.194 174.617 C 97.574 174.724 97.977 174.834 98.404 174.947 C 98.824 175.06 99.24 175.187 99.654 175.327 C 100.067 175.474 100.464 175.644 100.844 175.837 C 101.23 176.03 101.567 176.267 101.854 176.547 C 102.14 176.827 102.37 177.154 102.544 177.527 C 102.717 177.907 102.804 178.35 102.804 178.857 ZM 130.119 174.497 C 130.119 175.364 130.002 176.187 129.769 176.967 C 129.542 177.74 129.219 178.457 128.799 179.117 C 128.386 179.777 127.889 180.374 127.309 180.907 C 126.736 181.434 126.102 181.884 125.409 182.257 C 124.709 182.624 123.962 182.91 123.169 183.117 C 122.376 183.317 121.559 183.417 120.719 183.417 L 112.869 183.417 L 112.869 165.627 L 120.719 165.627 C 121.559 165.627 122.372 165.727 123.159 165.927 C 123.952 166.12 124.696 166.4 125.389 166.767 C 126.089 167.134 126.729 167.58 127.309 168.107 C 127.889 168.634 128.386 169.227 128.799 169.887 C 129.219 170.54 129.542 171.257 129.769 172.037 C 130.002 172.81 130.119 173.63 130.119 174.497 Z M 125.139 174.497 C 125.139 173.537 125.022 172.62 124.789 171.747 C 124.556 170.88 124.192 170.117 123.699 169.457 C 123.199 168.797 122.569 168.274 121.809 167.887 C 121.049 167.5 120.139 167.307 119.079 167.307 L 117.779 167.307 L 117.779 181.687 L 119.079 181.687 C 120.119 181.687 121.022 181.49 121.789 181.097 C 122.549 180.71 123.179 180.184 123.679 179.517 C 124.172 178.857 124.539 178.094 124.779 177.227 C 125.019 176.36 125.139 175.45 125.139 174.497 ZM 147.805 176.247 C 147.805 176.994 147.708 177.69 147.515 178.337 C 147.315 178.99 147.041 179.594 146.695 180.147 C 146.341 180.694 145.918 181.187 145.425 181.627 C 144.931 182.074 144.388 182.447 143.795 182.747 C 143.208 183.054 142.578 183.29 141.905 183.457 C 141.238 183.617 140.551 183.697 139.845 183.697 C 139.131 183.697 138.441 183.617 137.775 183.457 C 137.108 183.29 136.481 183.054 135.895 182.747 C 135.301 182.447 134.758 182.074 134.265 181.627 C 133.771 181.187 133.351 180.694 133.005 180.147 C 132.651 179.594 132.378 178.99 132.185 178.337 C 131.985 177.677 131.885 176.98 131.885 176.247 C 131.885 175.52 131.985 174.827 132.185 174.167 C 132.378 173.514 132.651 172.91 133.005 172.357 C 133.351 171.81 133.771 171.317 134.265 170.877 C 134.758 170.43 135.301 170.057 135.895 169.757 C 136.481 169.45 137.108 169.214 137.775 169.047 C 138.441 168.887 139.131 168.807 139.845 168.807 C 140.551 168.807 141.238 168.887 141.905 169.047 C 142.578 169.214 143.208 169.45 143.795 169.757 C 144.388 170.057 144.931 170.43 145.425 170.877 C 145.918 171.317 146.341 171.81 146.695 172.357 C 147.041 172.91 147.315 173.514 147.515 174.167 C 147.708 174.827 147.805 175.52 147.805 176.247 Z M 143.555 176.247 C 143.555 175.854 143.535 175.437 143.495 174.997 C 143.448 174.557 143.371 174.124 143.265 173.697 C 143.158 173.277 143.011 172.87 142.825 172.477 C 142.638 172.084 142.408 171.744 142.135 171.457 C 141.868 171.164 141.545 170.927 141.165 170.747 C 140.785 170.574 140.345 170.487 139.845 170.487 C 139.365 170.487 138.938 170.577 138.565 170.757 C 138.198 170.937 137.875 171.177 137.595 171.477 C 137.321 171.777 137.091 172.124 136.905 172.517 C 136.718 172.917 136.568 173.327 136.455 173.747 C 136.341 174.174 136.258 174.604 136.205 175.037 C 136.158 175.47 136.135 175.874 136.135 176.247 C 136.135 176.627 136.158 177.034 136.205 177.467 C 136.258 177.9 136.341 178.33 136.455 178.757 C 136.568 179.19 136.718 179.6 136.905 179.987 C 137.091 180.38 137.321 180.727 137.595 181.027 C 137.875 181.327 138.198 181.567 138.565 181.747 C 138.938 181.927 139.365 182.017 139.845 182.017 C 140.338 182.017 140.771 181.93 141.145 181.757 C 141.525 181.577 141.855 181.34 142.135 181.047 C 142.408 180.747 142.635 180.404 142.815 180.017 C 142.995 179.63 143.141 179.224 143.255 178.797 C 143.368 178.37 143.448 177.937 143.495 177.497 C 143.535 177.064 143.555 176.647 143.555 176.247 ZM 164.807 169.147 L 164.807 181.697 C 164.807 182.837 164.637 183.907 164.297 184.907 C 163.964 185.914 163.474 186.794 162.827 187.547 C 162.187 188.3 161.4 188.897 160.467 189.337 C 159.527 189.777 158.46 189.997 157.267 189.997 C 156.614 189.997 155.95 189.924 155.277 189.777 C 154.604 189.63 153.97 189.404 153.377 189.097 C 152.777 188.784 152.24 188.39 151.767 187.917 C 151.294 187.444 150.92 186.887 150.647 186.247 L 152.457 185.567 C 152.61 185.967 152.814 186.337 153.067 186.677 C 153.314 187.017 153.604 187.307 153.937 187.547 C 154.264 187.794 154.627 187.984 155.027 188.117 C 155.42 188.25 155.834 188.317 156.267 188.317 C 157.094 188.317 157.784 188.15 158.337 187.817 C 158.897 187.477 159.344 187.037 159.677 186.497 C 160.017 185.95 160.26 185.334 160.407 184.647 C 160.554 183.96 160.627 183.264 160.627 182.557 L 160.627 181.717 C 160.134 182.39 159.54 182.89 158.847 183.217 C 158.147 183.537 157.384 183.697 156.557 183.697 C 155.47 183.697 154.497 183.504 153.637 183.117 C 152.784 182.73 152.06 182.204 151.467 181.537 C 150.874 180.864 150.42 180.074 150.107 179.167 C 149.794 178.26 149.637 177.287 149.637 176.247 C 149.637 175.214 149.794 174.244 150.107 173.337 C 150.42 172.43 150.874 171.64 151.467 170.967 C 152.06 170.3 152.784 169.774 153.637 169.387 C 154.497 169 155.47 168.807 156.557 168.807 C 157.104 168.807 157.627 168.887 158.127 169.047 C 158.627 169.214 159.084 169.447 159.497 169.747 C 159.917 170.047 160.284 170.41 160.597 170.837 C 160.917 171.257 161.167 171.727 161.347 172.247 L 163.197 169.147 L 164.807 169.147 Z M 160.607 176.247 C 160.607 175.88 160.587 175.49 160.547 175.077 C 160.514 174.664 160.45 174.257 160.357 173.857 C 160.27 173.45 160.144 173.064 159.977 172.697 C 159.817 172.33 159.614 172.007 159.367 171.727 C 159.114 171.44 158.81 171.214 158.457 171.047 C 158.104 170.887 157.69 170.807 157.217 170.807 C 156.75 170.807 156.344 170.89 155.997 171.057 C 155.65 171.224 155.354 171.45 155.107 171.737 C 154.86 172.024 154.657 172.35 154.497 172.717 C 154.337 173.09 154.21 173.477 154.117 173.877 C 154.03 174.284 153.967 174.69 153.927 175.097 C 153.894 175.504 153.877 175.887 153.877 176.247 C 153.877 176.614 153.894 177.004 153.927 177.417 C 153.967 177.824 154.03 178.23 154.117 178.637 C 154.21 179.037 154.337 179.424 154.497 179.797 C 154.657 180.17 154.86 180.497 155.107 180.777 C 155.354 181.064 155.65 181.29 155.997 181.457 C 156.344 181.63 156.75 181.717 157.217 181.717 C 157.65 181.717 158.034 181.627 158.367 181.447 C 158.7 181.267 158.99 181.03 159.237 180.737 C 159.49 180.437 159.704 180.1 159.877 179.727 C 160.05 179.347 160.19 178.954 160.297 178.547 C 160.404 178.147 160.48 177.747 160.527 177.347 C 160.58 176.947 160.607 176.58 160.607 176.247 ZM 180.632 176.767 L 180.632 183.417 L 175.722 183.417 L 175.722 165.627 L 185.332 165.627 C 186.166 165.627 186.966 165.737 187.732 165.957 C 188.492 166.184 189.162 166.52 189.742 166.967 C 190.329 167.414 190.799 167.977 191.152 168.657 C 191.499 169.337 191.672 170.134 191.672 171.047 C 191.672 171.627 191.589 172.17 191.422 172.677 C 191.262 173.184 191.036 173.647 190.742 174.067 C 190.449 174.487 190.106 174.864 189.712 175.197 C 189.312 175.537 188.879 175.824 188.412 176.057 C 187.946 176.284 187.449 176.46 186.922 176.587 C 186.402 176.707 185.872 176.767 185.332 176.767 L 180.632 176.767 Z M 186.712 171.047 C 186.712 169.907 186.419 169.007 185.832 168.347 C 185.252 167.694 184.379 167.367 183.212 167.367 L 180.632 167.367 L 180.632 175.087 L 183.212 175.087 C 183.839 175.087 184.372 174.987 184.812 174.787 C 185.252 174.587 185.612 174.304 185.892 173.937 C 186.172 173.577 186.379 173.154 186.512 172.667 C 186.646 172.174 186.712 171.634 186.712 171.047 ZM 208.056 169.147 L 208.056 183.417 L 203.876 183.417 L 203.876 181.717 C 203.383 182.39 202.789 182.89 202.096 183.217 C 201.396 183.537 200.633 183.697 199.806 183.697 C 198.719 183.697 197.746 183.504 196.886 183.117 C 196.033 182.73 195.309 182.204 194.716 181.537 C 194.123 180.864 193.669 180.074 193.356 179.167 C 193.043 178.26 192.886 177.287 192.886 176.247 C 192.886 175.214 193.043 174.244 193.356 173.337 C 193.669 172.43 194.123 171.64 194.716 170.967 C 195.309 170.3 196.033 169.774 196.886 169.387 C 197.746 169 198.719 168.807 199.806 168.807 C 200.353 168.807 200.876 168.887 201.376 169.047 C 201.876 169.214 202.333 169.447 202.746 169.747 C 203.166 170.047 203.533 170.41 203.846 170.837 C 204.166 171.257 204.416 171.727 204.596 172.247 L 206.446 169.147 L 208.056 169.147 Z M 203.856 176.247 C 203.856 175.88 203.836 175.49 203.796 175.077 C 203.763 174.664 203.699 174.257 203.606 173.857 C 203.519 173.45 203.393 173.064 203.226 172.697 C 203.066 172.33 202.863 172.007 202.616 171.727 C 202.363 171.44 202.059 171.214 201.706 171.047 C 201.353 170.887 200.939 170.807 200.466 170.807 C 199.999 170.807 199.593 170.89 199.246 171.057 C 198.899 171.224 198.603 171.45 198.356 171.737 C 198.109 172.024 197.906 172.35 197.746 172.717 C 197.586 173.09 197.459 173.477 197.366 173.877 C 197.279 174.284 197.216 174.69 197.176 175.097 C 197.143 175.504 197.126 175.887 197.126 176.247 C 197.126 176.614 197.143 177.004 197.176 177.417 C 197.216 177.824 197.279 178.23 197.366 178.637 C 197.459 179.037 197.586 179.424 197.746 179.797 C 197.906 180.17 198.109 180.497 198.356 180.777 C 198.603 181.064 198.899 181.29 199.246 181.457 C 199.593 181.63 199.999 181.717 200.466 181.717 C 200.899 181.717 201.283 181.627 201.616 181.447 C 201.949 181.267 202.239 181.03 202.486 180.737 C 202.739 180.437 202.953 180.1 203.126 179.727 C 203.299 179.347 203.439 178.954 203.546 178.547 C 203.653 178.147 203.729 177.747 203.776 177.347 C 203.829 176.947 203.856 176.58 203.856 176.247 ZM 223.816 178.857 C 223.816 179.484 223.726 180.04 223.546 180.527 C 223.366 181.014 223.12 181.437 222.806 181.797 C 222.493 182.15 222.123 182.45 221.696 182.697 C 221.263 182.937 220.803 183.13 220.316 183.277 C 219.823 183.43 219.31 183.54 218.776 183.607 C 218.243 183.667 217.713 183.697 217.186 183.697 C 216.48 183.697 215.853 183.654 215.306 183.567 C 214.76 183.474 214.24 183.327 213.746 183.127 C 213.253 182.927 212.763 182.667 212.276 182.347 C 211.783 182.02 211.236 181.627 210.636 181.167 L 213.066 179.177 C 213.293 179.597 213.59 179.98 213.956 180.327 C 214.323 180.667 214.703 180.96 215.096 181.207 C 215.49 181.454 215.873 181.644 216.246 181.777 C 216.613 181.904 216.913 181.967 217.146 181.967 C 217.333 181.967 217.546 181.964 217.786 181.957 C 218.026 181.944 218.27 181.917 218.516 181.877 C 218.763 181.844 219.006 181.79 219.246 181.717 C 219.486 181.637 219.7 181.534 219.886 181.407 C 220.066 181.28 220.213 181.12 220.326 180.927 C 220.44 180.734 220.496 180.5 220.496 180.227 C 220.496 179.947 220.423 179.704 220.276 179.497 C 220.136 179.284 219.95 179.1 219.716 178.947 C 219.483 178.787 219.22 178.654 218.926 178.547 C 218.626 178.44 218.326 178.347 218.026 178.267 C 217.726 178.187 217.436 178.114 217.156 178.047 C 216.876 177.987 216.633 177.927 216.426 177.867 C 216.053 177.76 215.656 177.654 215.236 177.547 C 214.816 177.434 214.4 177.304 213.986 177.157 C 213.573 177.017 213.18 176.847 212.806 176.647 C 212.433 176.447 212.103 176.21 211.816 175.937 C 211.53 175.664 211.303 175.337 211.136 174.957 C 210.97 174.584 210.886 174.147 210.886 173.647 C 210.886 172.72 211.07 171.947 211.436 171.327 C 211.803 170.707 212.286 170.21 212.886 169.837 C 213.486 169.464 214.17 169.197 214.936 169.037 C 215.703 168.884 216.48 168.807 217.266 168.807 C 217.813 168.807 218.386 168.86 218.986 168.967 C 219.586 169.08 220.173 169.247 220.746 169.467 C 221.313 169.68 221.843 169.944 222.336 170.257 C 222.83 170.57 223.24 170.93 223.566 171.337 L 221.136 173.337 C 220.956 172.844 220.72 172.42 220.426 172.067 C 220.133 171.714 219.816 171.424 219.476 171.197 C 219.136 170.97 218.786 170.804 218.426 170.697 C 218.066 170.59 217.733 170.537 217.426 170.537 C 217.133 170.537 216.8 170.547 216.426 170.567 C 216.06 170.594 215.713 170.664 215.386 170.777 C 215.06 170.897 214.783 171.074 214.556 171.307 C 214.33 171.54 214.216 171.864 214.216 172.277 C 214.216 172.57 214.286 172.824 214.426 173.037 C 214.56 173.244 214.736 173.424 214.956 173.577 C 215.183 173.73 215.436 173.857 215.716 173.957 C 216.003 174.064 216.293 174.157 216.586 174.237 C 216.886 174.31 217.176 174.377 217.456 174.437 C 217.736 174.497 217.986 174.557 218.206 174.617 C 218.586 174.724 218.99 174.834 219.416 174.947 C 219.836 175.06 220.253 175.187 220.666 175.327 C 221.08 175.474 221.476 175.644 221.856 175.837 C 222.243 176.03 222.58 176.267 222.866 176.547 C 223.153 176.827 223.383 177.154 223.556 177.527 C 223.73 177.907 223.816 178.35 223.816 178.857 ZM 238.727 178.857 C 238.727 179.484 238.637 180.04 238.457 180.527 C 238.277 181.014 238.03 181.437 237.717 181.797 C 237.404 182.15 237.034 182.45 236.607 182.697 C 236.174 182.937 235.714 183.13 235.227 183.277 C 234.734 183.43 234.22 183.54 233.687 183.607 C 233.154 183.667 232.624 183.697 232.097 183.697 C 231.39 183.697 230.764 183.654 230.217 183.567 C 229.67 183.474 229.15 183.327 228.657 183.127 C 228.164 182.927 227.674 182.667 227.187 182.347 C 226.694 182.02 226.147 181.627 225.547 181.167 L 227.977 179.177 C 228.204 179.597 228.5 179.98 228.867 180.327 C 229.234 180.667 229.614 180.96 230.007 181.207 C 230.4 181.454 230.784 181.644 231.157 181.777 C 231.524 181.904 231.824 181.967 232.057 181.967 C 232.244 181.967 232.457 181.964 232.697 181.957 C 232.937 181.944 233.18 181.917 233.427 181.877 C 233.674 181.844 233.917 181.79 234.157 181.717 C 234.397 181.637 234.61 181.534 234.797 181.407 C 234.977 181.28 235.124 181.12 235.237 180.927 C 235.35 180.734 235.407 180.5 235.407 180.227 C 235.407 179.947 235.334 179.704 235.187 179.497 C 235.047 179.284 234.86 179.1 234.627 178.947 C 234.394 178.787 234.13 178.654 233.837 178.547 C 233.537 178.44 233.237 178.347 232.937 178.267 C 232.637 178.187 232.347 178.114 232.067 178.047 C 231.787 177.987 231.544 177.927 231.337 177.867 C 230.964 177.76 230.567 177.654 230.147 177.547 C 229.727 177.434 229.31 177.304 228.897 177.157 C 228.484 177.017 228.09 176.847 227.717 176.647 C 227.344 176.447 227.014 176.21 226.727 175.937 C 226.44 175.664 226.214 175.337 226.047 174.957 C 225.88 174.584 225.797 174.147 225.797 173.647 C 225.797 172.72 225.98 171.947 226.347 171.327 C 226.714 170.707 227.197 170.21 227.797 169.837 C 228.397 169.464 229.08 169.197 229.847 169.037 C 230.614 168.884 231.39 168.807 232.177 168.807 C 232.724 168.807 233.297 168.86 233.897 168.967 C 234.497 169.08 235.084 169.247 235.657 169.467 C 236.224 169.68 236.754 169.944 237.247 170.257 C 237.74 170.57 238.15 170.93 238.477 171.337 L 236.047 173.337 C 235.867 172.844 235.63 172.42 235.337 172.067 C 235.044 171.714 234.727 171.424 234.387 171.197 C 234.047 170.97 233.697 170.804 233.337 170.697 C 232.977 170.59 232.644 170.537 232.337 170.537 C 232.044 170.537 231.71 170.547 231.337 170.567 C 230.97 170.594 230.624 170.664 230.297 170.777 C 229.97 170.897 229.694 171.074 229.467 171.307 C 229.24 171.54 229.127 171.864 229.127 172.277 C 229.127 172.57 229.197 172.824 229.337 173.037 C 229.47 173.244 229.647 173.424 229.867 173.577 C 230.094 173.73 230.347 173.857 230.627 173.957 C 230.914 174.064 231.204 174.157 231.497 174.237 C 231.797 174.31 232.087 174.377 232.367 174.437 C 232.647 174.497 232.897 174.557 233.117 174.617 C 233.497 174.724 233.9 174.834 234.327 174.947 C 234.747 175.06 235.164 175.187 235.577 175.327 C 235.99 175.474 236.387 175.644 236.767 175.837 C 237.154 176.03 237.49 176.267 237.777 176.547 C 238.064 176.827 238.294 177.154 238.467 177.527 C 238.64 177.907 238.727 178.35 238.727 178.857 ZM 245.747 165.707 C 245.747 166.014 245.687 166.307 245.567 166.587 C 245.447 166.867 245.284 167.11 245.077 167.317 C 244.871 167.524 244.627 167.687 244.347 167.807 C 244.067 167.927 243.771 167.987 243.457 167.987 C 243.144 167.987 242.851 167.927 242.577 167.807 C 242.297 167.687 242.057 167.524 241.857 167.317 C 241.651 167.11 241.487 166.867 241.367 166.587 C 241.247 166.307 241.187 166.014 241.187 165.707 C 241.187 165.394 241.247 165.097 241.367 164.817 C 241.487 164.544 241.651 164.304 241.857 164.097 C 242.057 163.89 242.297 163.727 242.577 163.607 C 242.851 163.487 243.144 163.427 243.457 163.427 C 243.771 163.427 244.067 163.487 244.347 163.607 C 244.627 163.727 244.871 163.89 245.077 164.097 C 245.284 164.304 245.447 164.544 245.567 164.817 C 245.687 165.097 245.747 165.394 245.747 165.707 Z M 245.557 169.157 L 245.557 183.417 L 241.367 183.417 L 241.367 169.157 L 245.557 169.157 ZM 264.123 176.247 C 264.123 176.994 264.027 177.69 263.833 178.337 C 263.633 178.99 263.36 179.594 263.013 180.147 C 262.66 180.694 262.237 181.187 261.743 181.627 C 261.25 182.074 260.707 182.447 260.113 182.747 C 259.527 183.054 258.897 183.29 258.223 183.457 C 257.557 183.617 256.87 183.697 256.163 183.697 C 255.45 183.697 254.76 183.617 254.093 183.457 C 253.427 183.29 252.8 183.054 252.213 182.747 C 251.62 182.447 251.077 182.074 250.583 181.627 C 250.09 181.187 249.67 180.694 249.323 180.147 C 248.97 179.594 248.697 178.99 248.503 178.337 C 248.303 177.677 248.203 176.98 248.203 176.247 C 248.203 175.52 248.303 174.827 248.503 174.167 C 248.697 173.514 248.97 172.91 249.323 172.357 C 249.67 171.81 250.09 171.317 250.583 170.877 C 251.077 170.43 251.62 170.057 252.213 169.757 C 252.8 169.45 253.427 169.214 254.093 169.047 C 254.76 168.887 255.45 168.807 256.163 168.807 C 256.87 168.807 257.557 168.887 258.223 169.047 C 258.897 169.214 259.527 169.45 260.113 169.757 C 260.707 170.057 261.25 170.43 261.743 170.877 C 262.237 171.317 262.66 171.81 263.013 172.357 C 263.36 172.91 263.633 173.514 263.833 174.167 C 264.027 174.827 264.123 175.52 264.123 176.247 Z M 259.873 176.247 C 259.873 175.854 259.853 175.437 259.813 174.997 C 259.767 174.557 259.69 174.124 259.583 173.697 C 259.477 173.277 259.33 172.87 259.143 172.477 C 258.957 172.084 258.727 171.744 258.453 171.457 C 258.187 171.164 257.863 170.927 257.483 170.747 C 257.103 170.574 256.663 170.487 256.163 170.487 C 255.683 170.487 255.257 170.577 254.883 170.757 C 254.517 170.937 254.193 171.177 253.913 171.477 C 253.64 171.777 253.41 172.124 253.223 172.517 C 253.037 172.917 252.887 173.327 252.773 173.747 C 252.66 174.174 252.577 174.604 252.523 175.037 C 252.477 175.47 252.453 175.874 252.453 176.247 C 252.453 176.627 252.477 177.034 252.523 177.467 C 252.577 177.9 252.66 178.33 252.773 178.757 C 252.887 179.19 253.037 179.6 253.223 179.987 C 253.41 180.38 253.64 180.727 253.913 181.027 C 254.193 181.327 254.517 181.567 254.883 181.747 C 255.257 181.927 255.683 182.017 256.163 182.017 C 256.657 182.017 257.09 181.93 257.463 181.757 C 257.843 181.577 258.173 181.34 258.453 181.047 C 258.727 180.747 258.953 180.404 259.133 180.017 C 259.313 179.63 259.46 179.224 259.573 178.797 C 259.687 178.37 259.767 177.937 259.813 177.497 C 259.853 177.064 259.873 176.647 259.873 176.247 ZM 281.346 175.237 C 281.346 176.204 281.229 177.21 280.996 178.257 C 280.762 179.304 280.436 180.327 280.016 181.327 C 279.596 182.334 279.092 183.28 278.506 184.167 C 277.919 185.054 277.276 185.817 276.576 186.457 L 275.006 185.607 C 275.232 185.194 275.442 184.73 275.636 184.217 C 275.836 183.71 276.016 183.17 276.176 182.597 C 276.336 182.024 276.479 181.434 276.606 180.827 C 276.739 180.214 276.846 179.61 276.926 179.017 C 277.012 178.417 277.079 177.834 277.126 177.267 C 277.172 176.707 277.196 176.184 277.196 175.697 C 277.196 175.377 277.182 175.034 277.156 174.667 C 277.136 174.3 277.086 173.934 277.006 173.567 C 276.926 173.2 276.819 172.847 276.686 172.507 C 276.559 172.174 276.386 171.877 276.166 171.617 C 275.946 171.364 275.682 171.157 275.376 170.997 C 275.069 170.844 274.706 170.767 274.286 170.767 C 273.872 170.767 273.506 170.86 273.186 171.047 C 272.859 171.234 272.572 171.477 272.326 171.777 C 272.079 172.077 271.869 172.42 271.696 172.807 C 271.516 173.194 271.369 173.59 271.256 173.997 C 271.149 174.404 271.069 174.804 271.016 175.197 C 270.969 175.597 270.946 175.954 270.946 176.267 L 270.946 183.417 L 266.756 183.417 L 266.756 169.147 L 268.366 169.147 L 270.276 172.467 C 270.509 171.92 270.799 171.42 271.146 170.967 C 271.492 170.514 271.882 170.127 272.316 169.807 C 272.756 169.48 273.239 169.234 273.766 169.067 C 274.299 168.894 274.876 168.807 275.496 168.807 C 276.482 168.807 277.342 168.967 278.076 169.287 C 278.809 169.607 279.419 170.054 279.906 170.627 C 280.386 171.2 280.746 171.88 280.986 172.667 C 281.226 173.454 281.346 174.31 281.346 175.237 Z" transform="matrix(1, 0, 0, 1, 0, 0)" style="fill: rgb(51, 51, 51); white-space: pre;"/>
  <rect x="35.756" y="148.979" width="228.489" height="3.808" style="fill: rgb(216, 216, 216);">
    <title>line</title>
  </rect>
  <g transform="matrix(0.626787, 0, 0, 0.626787, 119.379074, -23.733128)" style="opacity: 0.5; visibility: hidden;">
    <title>activities</title>
    <rect x="154.927" y="104.012" width="55.84" height="47.863" style="stroke-linejoin: round; stroke: rgb(0, 0, 0); stroke-width: 1.59544px; fill: rgb(194, 194, 194);">
      <title>dog border</title>
    </rect>
    <rect x="83.133" y="104.012" width="55.84" height="47.863" style="stroke-linejoin: round; stroke: rgb(0, 0, 0); stroke-width: 1.59544px; fill: rgb(202, 202, 202);">
      <title>bike border</title>
    </rect>
    <path fill="currentColor" d="M 116.918 117.032 C 119.426 117.032 120.992 114.279 119.738 112.076 C 118.485 109.874 115.351 109.874 114.097 112.076 C 113.811 112.579 113.661 113.148 113.661 113.728 C 113.661 115.552 115.119 117.032 116.918 117.032 Z M 116.647 125.359 C 117.032 125.672 117.51 125.842 118.005 125.841 L 122.346 125.841 C 124.017 125.841 125.062 124.006 124.226 122.537 C 123.84 121.856 123.122 121.436 122.346 121.436 L 118.765 121.436 L 113.933 117.513 C 113.118 116.851 111.955 116.869 111.163 117.56 L 103.564 124.167 C 102.472 125.116 102.577 126.863 103.774 127.671 L 109.318 131.424 L 109.318 139.055 C 109.318 140.75 111.127 141.809 112.576 140.962 C 113.247 140.569 113.661 139.841 113.661 139.055 L 113.661 130.246 C 113.661 129.509 113.298 128.823 112.694 128.413 L 109.888 126.516 L 113.84 123.081 Z M 124.517 128.043 C 117.831 128.043 113.654 135.385 116.996 141.257 C 120.339 147.13 128.697 147.13 132.039 141.257 C 132.802 139.917 133.203 138.399 133.203 136.854 C 133.203 131.987 129.314 128.043 124.517 128.043 Z M 124.517 141.257 C 121.175 141.257 119.085 137.586 120.757 134.65 C 122.428 131.713 126.608 131.713 128.278 134.65 C 128.66 135.32 128.86 136.08 128.86 136.854 C 128.86 139.285 126.917 141.257 124.517 141.257 Z M 98.462 128.043 C 91.776 128.043 87.598 135.385 90.941 141.257 C 94.284 147.13 102.641 147.13 105.983 141.257 C 106.747 139.917 107.147 138.399 107.147 136.854 C 107.147 131.987 103.259 128.043 98.462 128.043 Z M 98.462 141.257 C 95.119 141.257 93.03 137.586 94.702 134.65 C 96.373 131.713 100.552 131.713 102.223 134.65 C 102.605 135.32 102.805 136.08 102.805 136.854 C 102.805 139.285 100.861 141.257 98.462 141.257 Z" style="stroke: rgb(0, 0, 0); stroke-width: 1.59544px;">
      <title>bike</title>
    </path>
    <path fill="currentColor" d="M 182.606 123.381 L 194.152 127.505 L 194.152 144.328 C 194.152 145.008 193.601 145.559 192.92 145.559 L 187.992 145.559 C 187.311 145.559 186.76 145.008 186.76 144.328 L 186.76 135.702 L 174.438 135.702 L 174.438 144.328 C 174.438 145.008 173.887 145.559 173.206 145.559 L 168.278 145.559 C 167.596 145.559 167.045 145.008 167.045 144.328 L 167.045 127.855 C 164.184 126.834 162.117 124.125 162.117 120.916 C 162.117 119.019 164.17 117.834 165.813 118.782 C 166.576 119.223 167.045 120.036 167.045 120.916 C 167.048 122.276 168.15 123.379 169.511 123.381 Z M 201.545 114.756 L 201.545 117.22 C 201.545 119.942 199.34 122.149 196.618 122.149 L 194.152 122.149 L 194.152 124.888 L 184.296 121.369 L 184.296 109.827 C 184.296 108.729 185.622 108.179 186.398 108.955 L 188.499 111.058 L 192.63 111.058 C 193.47 111.058 194.459 111.67 194.834 112.421 L 195.385 113.523 L 200.314 113.523 C 200.994 113.523 201.545 114.075 201.545 114.756 Z M 192.92 114.756 C 192.92 113.808 191.894 113.214 191.073 113.688 C 190.252 114.163 190.252 115.348 191.073 115.822 C 191.259 115.931 191.473 115.988 191.688 115.988 C 192.368 115.988 192.92 115.435 192.92 114.756 Z" style="stroke-width: 1.59544px; stroke: rgb(0, 0, 0);">
      <title>dog</title>
    </path>
  </g>
</svg>